<svg width="45" height="45" viewBox="0 0 45 45" fill="none" xmlns="http://www.w3.org/2000/svg">
<circle cx="22.5" cy="22.5" r="21" fill="white" stroke="#868686" stroke-width="3"/>
<path d="M28.4297 31H16.957V29.043L22.6406 22.8438C23.4609 21.9297 24.043 21.168 24.3867 20.5586C24.7383 19.9414 24.9141 19.3242 24.9141 18.707C24.9141 17.8945 24.6836 17.2383 24.2227 16.7383C23.7695 16.2383 23.1562 15.9883 22.3828 15.9883C21.4609 15.9883 20.7461 16.2695 20.2383 16.832C19.7305 17.3945 19.4766 18.1641 19.4766 19.1406H16.6289C16.6289 18.1016 16.8633 17.168 17.332 16.3398C17.8086 15.5039 18.4844 14.8555 19.3594 14.3945C20.2422 13.9336 21.2578 13.7031 22.4062 13.7031C24.0625 13.7031 25.3672 14.1211 26.3203 14.957C27.2812 15.7852 27.7617 16.9336 27.7617 18.4023C27.7617 19.2539 27.5195 20.1484 27.0352 21.0859C26.5586 22.0156 25.7734 23.0742 24.6797 24.2617L20.5078 28.7266H28.4297V31Z" fill="#868686"/>
</svg>
