<svg width="45" height="45" viewBox="0 0 45 45" fill="none" xmlns="http://www.w3.org/2000/svg">
<circle cx="22.5" cy="22.5" r="21" fill="white" stroke="#868686" stroke-width="3"/>
<path d="M20.25 21.168H21.9844C22.8594 21.1602 23.5508 20.9336 24.0586 20.4883C24.5742 20.043 24.832 19.3984 24.832 18.5547C24.832 17.7422 24.6172 17.1133 24.1875 16.668C23.7656 16.2148 23.1172 15.9883 22.2422 15.9883C21.4766 15.9883 20.8477 16.2109 20.3555 16.6562C19.8633 17.0938 19.6172 17.668 19.6172 18.3789H16.7695C16.7695 17.5039 17 16.707 17.4609 15.9883C17.9297 15.2695 18.5781 14.7109 19.4062 14.3125C20.2422 13.9062 21.1758 13.7031 22.207 13.7031C23.9102 13.7031 25.2461 14.1328 26.2148 14.9922C27.1914 15.8438 27.6797 17.0312 27.6797 18.5547C27.6797 19.3203 27.4336 20.043 26.9414 20.7227C26.457 21.3945 25.8281 21.9023 25.0547 22.2461C25.9922 22.5664 26.7031 23.0703 27.1875 23.7578C27.6797 24.4453 27.9258 25.2656 27.9258 26.2188C27.9258 27.75 27.3984 28.9688 26.3438 29.875C25.2969 30.7812 23.918 31.2344 22.207 31.2344C20.5664 31.2344 19.2227 30.7969 18.1758 29.9219C17.1289 29.0469 16.6055 27.8828 16.6055 26.4297H19.4531C19.4531 27.1797 19.7031 27.7891 20.2031 28.2578C20.7109 28.7266 21.3906 28.9609 22.2422 28.9609C23.125 28.9609 23.8203 28.7266 24.3281 28.2578C24.8359 27.7891 25.0898 27.1094 25.0898 26.2188C25.0898 25.3203 24.8242 24.6289 24.293 24.1445C23.7617 23.6602 22.9727 23.418 21.9258 23.418H20.25V21.168Z" fill="#868686"/>
</svg>
