<svg width="45" height="45" viewBox="0 0 45 45" fill="none" xmlns="http://www.w3.org/2000/svg">
<circle cx="22.5" cy="22.5" r="22.5" fill="#3AC271"/>
<path d="M35.9804 12.6077C35.791 12.4151 35.5656 12.2623 35.3173 12.158C35.069 12.0537 34.8027 12 34.5337 12C34.2647 12 33.9984 12.0537 33.7501 12.158C33.5018 12.2623 33.2764 12.4151 33.087 12.6077L17.9067 27.9341L11.529 21.483C11.3323 21.2915 11.1002 21.1409 10.8457 21.0398C10.5913 20.9387 10.3197 20.8891 10.0463 20.8939C9.77286 20.8986 9.50306 20.9577 9.25227 21.0676C9.00148 21.1775 8.77462 21.3361 8.58464 21.5344C8.39465 21.7327 8.24527 21.9668 8.14501 22.2233C8.04475 22.4798 7.99558 22.7537 8.00031 23.0294C8.00504 23.3051 8.06358 23.5771 8.17258 23.83C8.28158 24.0828 8.4389 24.3116 8.63558 24.5031L16.46 32.3923C16.6494 32.5849 16.8748 32.7377 17.1231 32.842C17.3714 32.9463 17.6377 33 17.9067 33C18.1757 33 18.442 32.9463 18.6904 32.842C18.9387 32.7377 19.164 32.5849 19.3534 32.3923L35.9804 15.6278C36.1872 15.4354 36.3523 15.2019 36.4652 14.942C36.5781 14.6821 36.6364 14.4015 36.6364 14.1177C36.6364 13.834 36.5781 13.5534 36.4652 13.2935C36.3523 13.0336 36.1872 12.8001 35.9804 12.6077Z" fill="white"/>
</svg>
