<svg width="25" height="25" viewBox="0 0 25 25" fill="none" xmlns="http://www.w3.org/2000/svg">
<path d="M15.1875 11.771C15.6609 11.1793 15.9214 10.4454 15.9271 9.68766C15.9271 8.77874 15.566 7.90705 14.9233 7.26435C14.2806 6.62165 13.4089 6.26058 12.5 6.26058C11.5911 6.26058 10.7194 6.62165 10.0767 7.26435C9.43398 7.90705 9.07292 8.77874 9.07292 9.68766C9.07856 10.4454 9.33907 11.1793 9.8125 11.771C8.88399 12.336 8.15552 13.1774 7.72917 14.1772C7.66949 14.3041 7.63604 14.4417 7.63081 14.5818C7.62558 14.7219 7.64869 14.8616 7.69874 14.9925C7.74879 15.1235 7.82476 15.243 7.92209 15.3439C8.01943 15.4448 8.13613 15.525 8.2652 15.5797C8.39427 15.6344 8.53306 15.6625 8.67325 15.6623C8.81344 15.6621 8.95214 15.6336 9.08106 15.5785C9.20997 15.5234 9.32644 15.4429 9.42349 15.3417C9.52053 15.2406 9.59616 15.1208 9.64583 14.9897C9.88524 14.4301 10.2829 13.9526 10.7899 13.6158C11.297 13.279 11.8913 13.0976 12.5 13.0939C13.1105 13.0956 13.7071 13.276 14.2161 13.6129C14.7252 13.9498 15.1245 14.4285 15.3646 14.9897C15.4443 15.178 15.5777 15.3387 15.7481 15.4517C15.9185 15.5647 16.1184 15.625 16.3229 15.6252C16.4623 15.6226 16.6 15.5943 16.7292 15.5418C16.9832 15.4339 17.184 15.2296 17.2875 14.9738C17.391 14.7179 17.3888 14.4314 17.2812 14.1772C16.8522 13.1759 16.1199 12.3344 15.1875 11.771ZM12.5 11.0106C12.2338 11.0106 11.9736 10.9315 11.7524 10.7834C11.5312 10.6353 11.359 10.4248 11.2576 10.1786C11.1562 9.93248 11.1302 9.66176 11.1829 9.40082C11.2356 9.13988 11.3646 8.90047 11.5536 8.71297C11.7425 8.52546 11.9829 8.39831 12.2443 8.34764C12.5056 8.29697 12.7761 8.32508 13.0215 8.42838C13.2668 8.53168 13.476 8.70554 13.6224 8.92788C13.7688 9.15023 13.8458 9.41104 13.8438 9.67725C13.841 10.0318 13.6982 10.3709 13.4465 10.6207C13.1948 10.8704 12.8546 11.0106 12.5 11.0106ZM18.75 2.0835H6.25C5.4212 2.0835 4.62634 2.41274 4.04029 2.99879C3.45424 3.58484 3.125 4.37969 3.125 5.2085V16.6668C3.125 17.4956 3.45424 18.2905 4.04029 18.8765C4.62634 19.4626 5.4212 19.7918 6.25 19.7918H8.94792L11.7604 22.6147C11.8577 22.7113 11.9732 22.7877 12.1001 22.8395C12.227 22.8913 12.3629 22.9176 12.5 22.9168C12.7483 22.9168 12.9884 22.8282 13.1771 22.6668L16.5312 19.7918H18.75C19.5788 19.7918 20.3737 19.4626 20.9597 18.8765C21.5458 18.2905 21.875 17.4956 21.875 16.6668V5.2085C21.875 4.37969 21.5458 3.58484 20.9597 2.99879C20.3737 2.41274 19.5788 2.0835 18.75 2.0835ZM19.7917 16.6668C19.7917 16.9431 19.6819 17.208 19.4866 17.4034C19.2912 17.5987 19.0263 17.7085 18.75 17.7085H16.1458C15.8976 17.7085 15.6574 17.7971 15.4688 17.9585L12.5521 20.4585L10.1146 18.0106C10.0172 17.914 9.90182 17.8377 9.7749 17.7858C9.64799 17.734 9.51209 17.7077 9.375 17.7085H6.25C5.97373 17.7085 5.70878 17.5987 5.51343 17.4034C5.31808 17.208 5.20833 16.9431 5.20833 16.6668V5.2085C5.20833 4.93223 5.31808 4.66728 5.51343 4.47193C5.70878 4.27658 5.97373 4.16683 6.25 4.16683H18.75C19.0263 4.16683 19.2912 4.27658 19.4866 4.47193C19.6819 4.66728 19.7917 4.93223 19.7917 5.2085V16.6668Z" fill="#BDBEC0"/>
</svg>
