<svg width="25" height="25" viewBox="0 0 25 25" fill="none" xmlns="http://www.w3.org/2000/svg">
<path d="M22.9004 11.2012L22.1777 3.56934C22.1411 3.17383 21.8262 2.86133 21.4306 2.82227L13.7988 2.09961H13.789C13.7109 2.09961 13.6499 2.12402 13.6035 2.17041L2.1704 13.6035C2.14776 13.6261 2.12981 13.6529 2.11756 13.6825C2.10531 13.712 2.099 13.7437 2.099 13.7756C2.099 13.8076 2.10531 13.8393 2.11756 13.8688C2.12981 13.8983 2.14776 13.9252 2.1704 13.9478L11.0522 22.8296C11.0986 22.876 11.1597 22.9004 11.2256 22.9004C11.2915 22.9004 11.3525 22.876 11.3989 22.8296L22.832 11.3965C22.8808 11.3452 22.9053 11.2744 22.9004 11.2012V11.2012ZM11.2231 20.3784L4.62157 13.7769L14.3799 4.01855L20.4101 4.58984L20.9814 10.6201L11.2231 20.3784ZM16.6015 6.25C15.4175 6.25 14.4531 7.21436 14.4531 8.39844C14.4531 9.58252 15.4175 10.5469 16.6015 10.5469C17.7856 10.5469 18.75 9.58252 18.75 8.39844C18.75 7.21436 17.7856 6.25 16.6015 6.25ZM16.6015 9.17969C16.1694 9.17969 15.8203 8.83057 15.8203 8.39844C15.8203 7.96631 16.1694 7.61719 16.6015 7.61719C17.0337 7.61719 17.3828 7.96631 17.3828 8.39844C17.3828 8.83057 17.0337 9.17969 16.6015 9.17969Z" fill="#BDBEC0"/>
</svg>
